# xmcd
#
# Track frame offsets: 
#        150
#        11869
#        23353
#        36511
#        50463
#        59452
#        70914
#        84360
#        96969
#        109284
#        122441
#        133326
#        144530
#        153306
#        165463
#        176054
#
# Disc length: 2506 seconds
#
# Revision: 0
# Processed by: cddbd v1.5.2PL0 Copyright (c) Steve Scherf et al.
# Submitted via: ExactAudioCopy v0.99pb5
#
DISCID=da09c810
DTITLE=Various Artist - Country and Western Hits  cd6
DYEAR=2000
DGENRE=Country
TTITLE0=Cowboy Copas - Signed sealed and delivered
TTITLE1=Lefty Frizzell - Shine shave shower
TTITLE2=Patsy Montana - My millio dollar smile
TTITLE3=Hank Snow - The night i stole ol' sammy morgan's gin
TTITLE4=Gene Autory - Sioux city sue
TTITLE5=Hardrock Gunter - I'll go chasin woman
TTITLE6=Ray Price - I made a mistake and i'm sorry
TTITLE7=Merle Travis - Crazy Boogie
TTITLE8=Chet Atkins - Sunrise serenade
TTITLE9=Hank Williams - Hey good lookin'
TTITLE10=Tex Williams - Kansas city rag
TTITLE11=Ernest Tubb - Somebody's stolen my Honey 
TTITLE12=Hank Thompon - If loving you is wrong 
TTITLE13=Ferlin Husky - King of a lonely castle
TTITLE14=Jim Reeves - Let me remember
TTITLE15=Don Gibson - No shoulder to cry on 
EXTD=
EXTT0=
EXTT1=
EXTT2=
EXTT3=
EXTT4=
EXTT5=
EXTT6=
EXTT7=
EXTT8=
EXTT9=
EXTT10=
EXTT11=
EXTT12=
EXTT13=
EXTT14=
EXTT15=
PLAYORDER=
